{
	"asset":{
		"generator":"Khronos glTF Blender I/O v3.5.30",
		"version":"2.0"
	},
	"scene":0,
	"scenes":[
		{
			"name":"Scene",
			"nodes":[
				0,
				1,
				2
			]
		}
	],
	"nodes":[
		{
			"mesh":0,
			"name":"Cylinder",
			"rotation":[
				0,
				0,
				-0.7071068286895752,
				0.7071068286895752
			]
		},
		{
			"mesh":1,
			"name":"Curve",
			"rotation":[
				0.5,
				0.5,
				-0.5,
				0.5000000596046448
			],
			"scale":[
				2.330596446990967,
				2.330596446990967,
				2.330596446990967
			],
			"translation":[
				0,
				-0.0015814232174307108,
				0.004744271747767925
			]
		},
		{
			"mesh":2,
			"name":"Curve.001",
			"rotation":[
				0.5,
				-0.5000000596046448,
				0.4999999403953552,
				0.5
			],
			"scale":[
				2.330596446990967,
				2.330596446990967,
				2.330596446990967
			],
			"translation":[
				-0.058810845017433167,
				-0.005020346958190203,
				0.014845043420791626
			]
		}
	],
	"materials":[
		{
			"doubleSided":true,
			"name":"Material.003",
			"pbrMetallicRoughness":{
				"baseColorFactor":[
					0.8000000715255737,
					0.47233182191848755,
					0.12312651425600052,
					1
				],
				"roughnessFactor":0.30000001192092896
			}
		},
		{
			"doubleSided":true,
			"name":"Material.002",
			"normalTexture":{
				"index":0
			},
			"pbrMetallicRoughness":{
				"baseColorFactor":[
					0.8000000715255737,
					0.47233182191848755,
					0.12312651425600052,
					1
				],
				"roughnessFactor":0.30000001192092896
			}
		},
		{
			"doubleSided":true,
			"name":"Material.001",
			"pbrMetallicRoughness":{
				"baseColorFactor":[
					0.8000000715255737,
					0.47233182191848755,
					0.12312651425600052,
					1
				],
				"roughnessFactor":0.30000001192092896
			}
		}
	],
	"meshes":[
		{
			"name":"Cylinder",
			"primitives":[
				{
					"attributes":{
						"POSITION":0,
						"TEXCOORD_0":1,
						"NORMAL":2
					},
					"indices":3,
					"material":0
				},
				{
					"attributes":{
						"POSITION":4,
						"TEXCOORD_0":5,
						"NORMAL":6
					},
					"indices":7,
					"material":1
				}
			]
		},
		{
			"name":"Curve",
			"primitives":[
				{
					"attributes":{
						"POSITION":8,
						"TEXCOORD_0":9,
						"NORMAL":10
					},
					"indices":11,
					"material":2
				}
			]
		},
		{
			"name":"Curve.001",
			"primitives":[
				{
					"attributes":{
						"POSITION":12,
						"TEXCOORD_0":13,
						"NORMAL":14
					},
					"indices":11,
					"material":2
				}
			]
		}
	],
	"textures":[
		{
			"sampler":0,
			"source":0
		}
	],
	"images":[
		{
			"bufferView":8,
			"mimeType":"image/png",
			"name":"pixelcut-export (1\u041a)"
		}
	],
	"accessors":[
		{
			"bufferView":0,
			"componentType":5126,
			"count":613,
			"max":[
				1,
				0.08712324500083923,
				1
			],
			"min":[
				-1,
				-0.08712324500083923,
				-1
			],
			"type":"VEC3"
		},
		{
			"bufferView":1,
			"componentType":5126,
			"count":613,
			"type":"VEC2"
		},
		{
			"bufferView":2,
			"componentType":5126,
			"count":613,
			"type":"VEC3"
		},
		{
			"bufferView":3,
			"componentType":5123,
			"count":1920,
			"type":"SCALAR"
		},
		{
			"bufferView":4,
			"componentType":5126,
			"count":192,
			"max":[
				0.9375016689300537,
				0.057197898626327515,
				0.9375016689300537
			],
			"min":[
				-0.9375016689300537,
				-0.057197898626327515,
				-0.9375016689300537
			],
			"type":"VEC3"
		},
		{
			"bufferView":5,
			"componentType":5126,
			"count":192,
			"type":"VEC2"
		},
		{
			"bufferView":6,
			"componentType":5126,
			"count":192,
			"type":"VEC3"
		},
		{
			"bufferView":7,
			"componentType":5123,
			"count":948,
			"type":"SCALAR"
		},
		{
			"bufferView":9,
			"componentType":5126,
			"count":3880,
			"max":[
				0.2780100405216217,
				0.03163592517375946,
				0.14860303699970245
			],
			"min":[
				-0.26360735297203064,
				0.017635926604270935,
				-0.14972321689128876
			],
			"type":"VEC3"
		},
		{
			"bufferView":10,
			"componentType":5126,
			"count":3880,
			"type":"VEC2"
		},
		{
			"bufferView":11,
			"componentType":5126,
			"count":3880,
			"type":"VEC3"
		},
		{
			"bufferView":12,
			"componentType":5123,
			"count":11598,
			"type":"SCALAR"
		},
		{
			"bufferView":13,
			"componentType":5126,
			"count":3880,
			"max":[
				0.27080869674682617,
				0.006999999284744263,
				0.1491631269454956
			],
			"min":[
				-0.27080869674682617,
				-0.006999999284744263,
				-0.1491631269454956
			],
			"type":"VEC3"
		},
		{
			"bufferView":14,
			"componentType":5126,
			"count":3880,
			"type":"VEC2"
		},
		{
			"bufferView":15,
			"componentType":5126,
			"count":3880,
			"type":"VEC3"
		}
	],
	"bufferViews":[
		{
			"buffer":0,
			"byteLength":7356,
			"byteOffset":0,
			"target":34962
		},
		{
			"buffer":0,
			"byteLength":4904,
			"byteOffset":7356,
			"target":34962
		},
		{
			"buffer":0,
			"byteLength":7356,
			"byteOffset":12260,
			"target":34962
		},
		{
			"buffer":0,
			"byteLength":3840,
			"byteOffset":19616,
			"target":34963
		},
		{
			"buffer":0,
			"byteLength":2304,
			"byteOffset":23456,
			"target":34962
		},
		{
			"buffer":0,
			"byteLength":1536,
			"byteOffset":25760,
			"target":34962
		},
		{
			"buffer":0,
			"byteLength":2304,
			"byteOffset":27296,
			"target":34962
		},
		{
			"buffer":0,
			"byteLength":1896,
			"byteOffset":29600,
			"target":34963
		},
		{
			"buffer":0,
			"byteLength":2327802,
			"byteOffset":31496
		},
		{
			"buffer":0,
			"byteLength":46560,
			"byteOffset":2359300,
			"target":34962
		},
		{
			"buffer":0,
			"byteLength":31040,
			"byteOffset":2405860,
			"target":34962
		},
		{
			"buffer":0,
			"byteLength":46560,
			"byteOffset":2436900,
			"target":34962
		},
		{
			"buffer":0,
			"byteLength":23196,
			"byteOffset":2483460,
			"target":34963
		},
		{
			"buffer":0,
			"byteLength":46560,
			"byteOffset":2506656,
			"target":34962
		},
		{
			"buffer":0,
			"byteLength":31040,
			"byteOffset":2553216,
			"target":34962
		},
		{
			"buffer":0,
			"byteLength":46560,
			"byteOffset":2584256,
			"target":34962
		}
	],
	"samplers":[
		{
			"magFilter":9729,
			"minFilter":9987
		}
	],
	"buffers":[
		{
			"byteLength":2630816,
			"uri":"data:application/octet-stream;base64,"
		}
	]
}
