<svg width="51" height="60" viewBox="0 0 51 60" fill="none" xmlns="http://www.w3.org/2000/svg">
<g clip-path="url(#clip0_47_61)">
<path fill-rule="evenodd" clip-rule="evenodd" d="M18.9461 3.42412C15.4562 5.284 12.601 6.85782 12.6016 6.92184C12.6032 7.08705 20.9774 11.4259 21.2747 11.4153C21.4099 11.4107 22.3907 10.9488 23.4542 10.389L25.3881 9.37137L27.5002 10.482L29.6121 11.5929L33.0709 10.0029C38.2825 7.60703 38.8238 7.34448 38.739 7.25628C38.6264 7.13924 36.7571 6.11187 31.6855 3.3803C29.2345 2.0601 26.8556 0.765685 26.3989 0.503761C25.9422 0.241837 25.5063 0.031136 25.4301 0.0352145C25.354 0.039293 22.4361 1.56432 18.9461 3.42412ZM3.63946 11.5332L0.00652372 13.453V21.8787C0.00652372 26.5129 0.0542278 30.3043 0.112743 30.3043C0.171055 30.3043 1.95847 29.5116 4.08468 28.5428L7.95053 26.7813V17.9L9.83964 18.953C11.2954 19.7636 12.7519 20.5726 14.2094 21.38L16.69 22.754L17.7938 22.2434C18.4861 21.9226 19.177 21.5987 19.8665 21.2717C20.3993 21.0179 21.7071 20.4153 22.7728 19.9323C23.8384 19.4491 24.8248 18.9632 24.9647 18.8524C25.1505 18.7053 22.8848 17.4244 16.5844 14.1144C11.8353 11.6194 7.79728 9.58594 7.61106 9.59569C7.42484 9.60544 5.63763 10.4772 3.63946 11.5332ZM39.3937 12.0723C36.9194 13.2151 34.8933 14.1957 34.891 14.2516C34.8888 14.3075 36.2374 15.1278 37.888 16.0743C39.5384 17.021 40.8889 17.8462 40.8889 17.9083C40.8889 17.9703 39.4284 18.6943 37.6435 19.5175C35.8584 20.3405 31.3465 22.4251 27.6167 24.15L15.1194 29.9292C11.9758 31.3831 9.14212 32.6935 8.82244 32.8417C2.40132 35.8155 0.636406 36.6407 0.394034 36.7823C0.150311 36.9249 0.0951073 37.7534 0.0517277 41.9116L-3.05176e-05 46.8711L3.24871 48.5646L6.49738 50.258L11.0022 48.1781C13.4799 47.0343 15.507 46.0384 15.507 45.9651C15.507 45.8919 15.0491 45.5867 14.4898 45.2866C13.9302 44.9864 12.775 44.322 11.9225 43.8097C11.07 43.2974 10.22 42.8274 10.0334 42.7651C9.8468 42.7029 9.69686 42.5942 9.6999 42.5233C9.70301 42.4525 11.6867 41.4886 14.1079 40.3809C18.8105 38.2299 22.4093 36.572 30.1355 32.9975C33.5903 31.3994 37.0456 29.8024 40.5014 28.2063C43.5385 26.8038 47.0697 25.1658 48.3485 24.5664L50.6735 23.4764L50.7252 18.4605L50.7772 13.4447L47.4822 11.7144C45.6698 10.7629 44.1207 9.98667 44.0395 9.98951C43.9584 9.99214 41.8678 10.9293 39.3937 12.0723ZM49.7907 30.168C49.3052 30.4106 48.3461 30.8649 47.6595 31.1774C46.9728 31.49 45.6698 32.0914 44.764 32.5143L43.117 33.2828L43.0795 37.6863C43.0587 40.1082 42.9716 42.0791 42.8858 42.0663C42.6908 42.0366 39.6041 40.4171 36.5013 38.7161C34.2619 37.4886 34.1212 37.4398 33.595 37.7065C33.2908 37.8607 31.4724 38.695 29.5542 39.5608C27.636 40.4265 26.0041 41.1913 25.9273 41.2606C25.8508 41.3297 29.7113 43.4704 34.5066 46.0179L43.225 50.6496L46.9494 48.6786C48.9975 47.5947 50.7392 46.6059 50.8194 46.4816C51 46.202 50.9845 29.6884 50.8037 29.7108C50.7323 29.7195 50.2763 29.9253 49.7907 30.168ZM29.1667 49.5507C28.5207 49.8348 27.8749 50.1194 27.2292 50.4044C25.2794 51.2673 25.6615 51.296 23.3418 50.1146C21.7969 49.3278 21.1309 49.085 20.8418 49.2029C20.625 49.2912 18.7589 50.1501 16.6947 51.1115C14.6306 52.0728 12.8701 52.8594 12.7826 52.8594C11.9165 52.8594 13.3563 53.7394 18.912 56.6065L25.4276 59.9687L28.1691 58.5841C29.6769 57.8225 32.718 56.2975 34.9274 55.1952C37.1366 54.0926 38.9169 53.1619 38.8836 53.1268C38.85 53.0918 36.9988 52.1193 34.7697 50.9657L30.7168 48.8686L29.1667 49.5507Z" fill="#FBFBFB"/>
</g>
<defs>
<clipPath id="clip0_47_61">
<rect width="51" height="60" fill="white"/>
</clipPath>
</defs>
</svg>
